Coordinates
version=1
nRows=5
nColumns=44
inDegrees=yes

Units are S.I. units (second, meters, Newtons, ...)
If the header above contains a line with 'inDegrees', this indicates whether rotational values are in degrees (yes) or radians (no).

endheader
time	pelvis_tilt	pelvis_list	pelvis_rotation	pelvis_tx	pelvis_ty	pelvis_tz	hip_flexion_r	hip_adduction_r	hip_rotation_r	knee_angle_r	knee_frontal_r	knee_adduction_r	knee_angle_r_beta	ankle_angle_r	subtalar_angle_r	mtp_angle_r	hip_flexion_l	hip_adduction_l	hip_rotation_l	knee_angle_l	knee_frontal_l	knee_adduction_l	knee_angle_l_beta	ankle_angle_l	subtalar_angle_l	mtp_angle_l	lumbar_extension	lumbar_bending	lumbar_rotation	arm_flex_r	arm_add_r	arm_rot_r	elbow_flex_r	pro_sup_r	wrist_flex_r	wrist_dev_r	arm_flex_l	arm_add_l	arm_rot_l	elbow_flex_l	pro_sup_l	wrist_flex_l	wrist_dev_l
      0.00000000	     -5.93517475	      0.64581644	     -2.44263763	      0.82998521	      0.97025983	      0.48214851	     33.30767678	     -1.28570673	      3.31319661	     42.70293393	     -0.00000000	     -0.00000000	      0.74530680	      2.91263138	     -5.00780904	    -13.05757071	      3.60400085	      1.86724350	      5.30537664	     12.47816186	      0.00000000	      0.00000000	      0.21778501	     10.05278756	     -6.24387946	    -10.85053215	     -4.12599865	      1.91446367	      0.00109587	     -9.82628239	    -13.52802528	     -5.04928531	     28.74603585	     90.00000001	      0.00000000	     -0.00000000	      0.50768461	    -22.47791075	      2.24351952	     57.80034995	     90.00000001	      0.00000000	     -0.00000000
      0.00500000	     -6.10545117	      0.76426579	     -2.36539150	      0.82949365	      0.96974401	      0.48239918	     33.38124823	     -1.38990948	      3.40835631	     40.66450255	      0.00000000	      0.00000000	      0.70972946	      2.98024864	     -4.87299248	    -13.00029733	      3.38254181	      1.96425605	      5.33990859	     12.38612377	      0.00000000	      0.00000000	      0.21617864	     10.15391828	     -6.07305211	    -10.98201606	     -3.90462790	      1.73477087	     -0.00004014	    -10.15677725	    -13.40408037	     -5.16487514	     28.73132888	     90.00000001	      0.00000000	      0.00000000	      0.64327278	    -22.72635559	      2.30910538	     58.50513874	     90.00000001	      0.00000000	      0.00000000
      0.01000000	     -6.24237331	      1.06245706	     -2.31692117	      0.82869212	      0.96907747	      0.48257149	     33.52069720	     -1.71152732	      3.47565794	     38.78078128	      0.00000000	      0.00000000	      0.67685232	      3.17464311	     -4.41247994	    -12.95421851	      3.14099579	      2.26284302	      5.26390315	     12.27597421	      0.00000000	      0.00000000	      0.21425617	     10.18992709	     -5.87883111	    -11.12944154	     -3.75320717	      1.39673289	      0.00106691	    -10.34311174	    -13.23488955	     -5.20942298	     28.69017155	     90.00000001	      0.00000000	      0.00000000	      0.91177144	    -22.97264322	      2.27528704	     58.96762532	     90.00000001	      0.00000000	      0.00000000
      0.01500000	     -6.36411904	      0.98350491	     -2.26967622	      0.82852897	      0.96859775	      0.48252971	     33.39778356	     -1.62149931	      3.62183583	     36.57179736	      0.00000000	      0.00000000	      0.63829828	      3.21531587	     -4.16915266	    -12.81104165	      2.84626580	      2.19111613	      5.41485434	     12.20376834	      0.00000000	      0.00000000	      0.21299594	     10.22447615	     -5.98868062	    -11.42938171	     -3.52906946	      1.50093327	      0.00185361	    -10.63957203	    -13.21718988	     -5.38195023	     28.52414759	     90.00000001	      0.00000000	      0.00000000	      0.87656161	    -23.09897239	      2.37846284	     59.85270156	     90.00000001	      0.00000000	      0.00000000
      0.02000000	     -6.45691704	      1.32367480	     -2.25387236	      0.82772211	      0.96783349	      0.48283540	     33.47568087	     -1.95166121	      3.81274146	     34.69925005	      0.00000000	      0.00000000	      0.60561616	      3.42859641	     -3.67120955	    -12.78534211	      2.59123493	      2.53554608	      5.39862882	     12.15899286	      0.00000000	      0.00000000	      0.21221446	     10.28425900	     -5.90342386	    -11.66775994	     -3.42099460	      1.07888937	      0.00040733	    -10.83473795	    -13.08403166	     -5.40950544	     28.54582597	     90.00000001	      0.00000000	      0.00000000	      1.14734149	    -23.34211822	      2.32205924	     60.23412201	     90.00000001	      0.00000000	      0.00000000
